<?xml version="1.0" encoding="UTF-8"?>
<svg xmlns="http://www.w3.org/2000/svg" xmlns:xlink="http://www.w3.org/1999/xlink" width="1000px" height="1000px" viewBox="0 0 1000 1000" version="1.1">
<defs>
<filter id="alpha" filterUnits="objectBoundingBox" x="0%" y="0%" width="100%" height="100%">
  <feColorMatrix type="matrix" in="SourceGraphic" values="0 0 0 0 1 0 0 0 0 1 0 0 0 0 1 0 0 0 1 0"/>
</filter>
<mask id="mask0">
  <g filter="url(#alpha)">
<rect x="0" y="0" width="1000" height="1000" style="fill:rgb(0%,0%,0%);fill-opacity:0.768627;stroke:none;"/>
  </g>
</mask>
<clipPath id="clip1">
  <rect x="0" y="0" width="1000" height="1000"/>
</clipPath>
<g id="surface5" clip-path="url(#clip1)">
<path style=" stroke:none;fill-rule:evenodd;fill:rgb(82.745099%,25.882354%,25.098041%);fill-opacity:1;" d="M 653 387 C 656.769531 388.765625 659.433594 391.765625 661 396 C 664.945312 396.988281 668.945312 397.324219 673 397 C 673 395 673 393 673 391 C 674.496094 393.0625 675.828125 395.394531 677 398 C 664.839844 402.203125 656.839844 398.535156 653 387 Z M 653 387 "/>
</g>
<mask id="mask1">
  <g filter="url(#alpha)">
<rect x="0" y="0" width="1000" height="1000" style="fill:rgb(0%,0%,0%);fill-opacity:0.611765;stroke:none;"/>
  </g>
</mask>
<clipPath id="clip2">
  <rect x="0" y="0" width="1000" height="1000"/>
</clipPath>
<g id="surface8" clip-path="url(#clip2)">
<path style=" stroke:none;fill-rule:evenodd;fill:rgb(89.019608%,78.431374%,33.333334%);fill-opacity:1;" d="M 425 453 C 425.835938 451.554688 427.167969 450.554688 429 450 C 421 448.664062 413 448.664062 405 450 C 407.660156 474.53125 407.660156 498.863281 405 523 C 406.089844 497.386719 404.753906 472.050781 401 447 C 411 447 421 447 431 447 C 431 449 431 451 431 453 C 429 453 427 453 425 453 Z M 425 453 "/>
</g>
<mask id="mask2">
  <g filter="url(#alpha)">
<rect x="0" y="0" width="1000" height="1000" style="fill:rgb(0%,0%,0%);fill-opacity:0.121569;stroke:none;"/>
  </g>
</mask>
<clipPath id="clip3">
  <rect x="0" y="0" width="1000" height="1000"/>
</clipPath>
<g id="surface11" clip-path="url(#clip3)">
<path style=" stroke:none;fill-rule:evenodd;fill:rgb(92.156863%,83.92157%,38.039216%);fill-opacity:1;" d="M 689 455 C 690.992188 481.3125 691.65625 507.980469 691 535 C 689 536.335938 687 537.664062 685 539 C 684.921875 536.488281 685.921875 534.488281 688 533 C 689 507.007812 689.335938 481.007812 689 455 Z M 689 455 "/>
</g>
<mask id="mask3">
  <g filter="url(#alpha)">
<rect x="0" y="0" width="1000" height="1000" style="fill:rgb(0%,0%,0%);fill-opacity:0.533333;stroke:none;"/>
  </g>
</mask>
<clipPath id="clip4">
  <rect x="0" y="0" width="1000" height="1000"/>
</clipPath>
<g id="surface14" clip-path="url(#clip4)">
<path style=" stroke:none;fill-rule:evenodd;fill:rgb(84.313726%,73.333335%,25.490198%);fill-opacity:1;" d="M 587 577 C 590.910156 588.824219 592.246094 601.488281 591 615 C 589 615 587 615 585 615 C 584.417969 602.152344 585.085938 589.488281 587 577 Z M 587 577 "/>
</g>
<mask id="mask4">
  <g filter="url(#alpha)">
<rect x="0" y="0" width="1000" height="1000" style="fill:rgb(0%,0%,0%);fill-opacity:0.85098;stroke:none;"/>
  </g>
</mask>
<clipPath id="clip5">
  <rect x="0" y="0" width="1000" height="1000"/>
</clipPath>
<g id="surface17" clip-path="url(#clip5)">
<path style=" stroke:none;fill-rule:evenodd;fill:rgb(90.588236%,78.823531%,26.666668%);fill-opacity:1;" d="M 661 577 C 668.921875 584.625 675.921875 593.289062 682 603 C 682.34375 594.257812 683.34375 585.59375 685 577 C 687.664062 589.664062 687.664062 602.335938 685 615 C 677.710938 607.121094 671.378906 598.453125 666 589 C 665.003906 597.640625 664.667969 606.308594 665 615 C 663 615 661 615 659 615 C 658.417969 602.152344 659.085938 589.488281 661 577 Z M 661 577 "/>
</g>
<mask id="mask5">
  <g filter="url(#alpha)">
<rect x="0" y="0" width="1000" height="1000" style="fill:rgb(0%,0%,0%);fill-opacity:0.435294;stroke:none;"/>
  </g>
</mask>
<clipPath id="clip6">
  <rect x="0" y="0" width="1000" height="1000"/>
</clipPath>
<g id="surface20" clip-path="url(#clip6)">
<path style=" stroke:none;fill-rule:evenodd;fill:rgb(92.156863%,80.000001%,27.843139%);fill-opacity:1;" d="M 455 609 C 454.527344 606.417969 455.191406 604.417969 457 603 C 460.554688 608.988281 465.554688 610.320312 472 607 C 474.125 597.152344 475.789062 587.152344 477 577 C 479.324219 586.933594 479.65625 596.933594 478 607 C 475.746094 612.136719 471.746094 614.804688 466 615 C 461.203125 614.773438 457.535156 612.773438 455 609 Z M 455 609 "/>
</g>
<mask id="mask6">
  <g filter="url(#alpha)">
<rect x="0" y="0" width="1000" height="1000" style="fill:rgb(0%,0%,0%);fill-opacity:0.47451;stroke:none;"/>
  </g>
</mask>
<clipPath id="clip7">
  <rect x="0" y="0" width="1000" height="1000"/>
</clipPath>
<g id="surface23" clip-path="url(#clip7)">
<path style=" stroke:none;fill-rule:evenodd;fill:rgb(81.960785%,24.313726%,25.490198%);fill-opacity:1;" d="M 487 709 C 482.738281 710.628906 478.070312 711.628906 473 712 C 457.015625 713 441.015625 713.332031 425 713 C 425 712.335938 425 711.664062 425 711 C 445.703125 711.203125 466.371094 710.535156 487 709 Z M 487 709 "/>
</g>
</defs>
<g id="surface1">
<path style=" stroke:none;fill-rule:evenodd;fill:rgb(87.843138%,25.882354%,26.274511%);fill-opacity:1;" d="M 469 241 C 454.984375 240.667969 440.984375 241 427 242 C 406.5625 244.027344 386.5625 248.359375 367 255 C 365.167969 254.914062 363.835938 254.246094 363 253 C 397.765625 241.234375 433.101562 237.234375 469 241 Z M 469 241 "/>
<path style=" stroke:none;fill-rule:evenodd;fill:rgb(85.490197%,24.313726%,24.313726%);fill-opacity:1;" d="M 471 241 C 485.6875 241.332031 499.6875 243.996094 513 249 C 511.664062 249 510.335938 249 509 249 C 495.613281 247.296875 482.945312 244.628906 471 241 Z M 471 241 "/>
<path style=" stroke:none;fill-rule:evenodd;fill:rgb(99.215686%,19.215687%,19.215687%);fill-opacity:1;" d="M 469 241 C 469.664062 241 470.335938 241 471 241 C 482.945312 244.628906 495.613281 247.296875 509 249 C 506.269531 255.714844 502.601562 257.050781 498 253 C 492.367188 254.261719 487.035156 252.929688 482 249 C 480.566406 250.089844 479.566406 251.421875 479 253 C 441.691406 250.652344 405.359375 254.652344 370 265 C 365.199219 263.203125 362.199219 259.867188 361 255 C 361 253.664062 361.664062 253 363 253 C 363.835938 254.246094 365.167969 254.914062 367 255 C 386.5625 248.359375 406.5625 244.027344 427 242 C 440.984375 241 454.984375 240.667969 469 241 Z M 469 241 "/>
<path style=" stroke:none;fill-rule:evenodd;fill:rgb(89.803922%,23.921569%,23.529412%);fill-opacity:1;" d="M 479 253 C 485.382812 255.441406 492.050781 257.105469 499 258 C 500.113281 258.765625 500.777344 259.765625 501 261 C 439.320312 248.140625 381.320312 257.472656 327 289 C 327.90625 287.085938 329.238281 285.414062 331 284 C 325.441406 283.703125 324.441406 282.035156 328 279 C 331.453125 281.152344 335.117188 281.484375 339 280 C 338.085938 279.171875 337.417969 278.171875 337 277 C 341.53125 275.371094 346.199219 274.371094 351 274 C 354.445312 272.953125 357.113281 270.953125 359 268 C 358.191406 266.109375 356.855469 264.777344 355 264 C 360.242188 262.1875 359.90625 261.1875 354 261 C 352.335938 261.335938 350.664062 261.664062 349 262 C 350.902344 263.4375 351.234375 265.101562 350 267 C 346.601562 265.1875 342.933594 264.523438 339 265 C 345.480469 260.097656 352.8125 256.765625 361 255 C 362.199219 259.867188 365.199219 263.203125 370 265 C 405.359375 254.652344 441.691406 250.652344 479 253 Z M 479 253 "/>
<path style=" stroke:none;fill-rule:evenodd;fill:rgb(95.294118%,21.176471%,20.784314%);fill-opacity:1;" d="M 509 249 C 510.335938 249 511.664062 249 513 249 C 580.097656 267.738281 630.433594 307.738281 664 369 C 667.597656 376.140625 670.597656 383.472656 673 391 C 673 393 673 395 673 397 C 668.945312 397.324219 664.945312 396.988281 661 396 C 659.433594 391.765625 656.769531 388.765625 653 387 C 621.074219 322.375 570.410156 280.375 501 261 C 500.777344 259.765625 500.113281 258.765625 499 258 C 492.050781 257.105469 485.382812 255.441406 479 253 C 479.566406 251.421875 480.566406 250.089844 482 249 C 487.035156 252.929688 492.367188 254.261719 498 253 C 502.601562 257.050781 506.269531 255.714844 509 249 Z M 509 249 "/>
<path style=" stroke:none;fill-rule:evenodd;fill:rgb(99.215686%,83.529413%,15.294118%);fill-opacity:1;" d="M 513 543 C 513.664062 543 514.335938 543 515 543 C 511.207031 545.609375 506.539062 546.941406 501 547 C 496.335938 546.664062 491.664062 546.335938 487 546 C 488.113281 545.234375 488.777344 544.234375 489 543 C 491.664062 489 491.664062 435 489 381 C 492.445312 378.398438 496.78125 377.066406 502 377 C 506.335938 377.335938 510.664062 377.664062 515 378 C 513.167969 378.746094 511.5 379.746094 510 381 C 509.328125 435.34375 510.328125 489.34375 513 543 Z M 513 543 "/>
<path style=" stroke:none;fill-rule:evenodd;fill:rgb(92.54902%,81.176472%,30.588236%);fill-opacity:1;" d="M 551 459 C 548.746094 457.757812 546.746094 456.089844 545 454 C 542.113281 452.4375 539.445312 452.773438 537 455 C 539.648438 484.589844 539.648438 513.921875 537 543 C 537.335938 514.992188 537 486.992188 536 459 C 529.441406 449.378906 522.109375 448.710938 514 457 C 513 485.65625 512.664062 514.324219 513 543 C 510.328125 489.34375 509.328125 435.34375 510 381 C 511.5 379.746094 513.167969 378.746094 515 378 C 510.664062 377.664062 506.335938 377.335938 502 377 C 496.78125 377.066406 492.445312 378.398438 489 381 C 485.902344 380.359375 484.570312 378.359375 485 375 C 496.335938 375 507.664062 375 519 375 C 519 377 519 379 519 381 C 517 381 515 381 513 381 C 512.335938 403.707031 513.003906 426.371094 515 449 C 526.03125 445.902344 536.699219 446.902344 547 452 C 549.644531 453.632812 550.976562 455.964844 551 459 Z M 551 459 "/>
<path style=" stroke:none;fill-rule:evenodd;fill:rgb(96.078432%,21.176471%,20.392157%);fill-opacity:1;" d="M 327 289 C 283.835938 317.382812 252.503906 355.382812 233 403 C 229.148438 407.234375 226.480469 412.234375 225 418 C 222.113281 427.441406 220.777344 437.109375 221 447 C 218.046875 461.21875 216.714844 475.886719 217 491 C 216.597656 504.382812 217.929688 517.382812 221 530 C 220.839844 533.789062 220.175781 537.453125 219 541 C 224.269531 543.613281 227.601562 547.613281 229 553 C 229.890625 558.730469 228.554688 563.730469 225 568 C 225.695312 571.136719 226.027344 574.804688 226 579 C 224.585938 577.238281 222.914062 575.90625 221 575 C 187.398438 484.515625 200.394531 401.183594 260 325 C 282.148438 299.144531 308.480469 279.144531 339 265 C 342.933594 264.523438 346.601562 265.1875 350 267 C 351.234375 265.101562 350.902344 263.4375 349 262 C 350.664062 261.664062 352.335938 261.335938 354 261 C 359.90625 261.1875 360.242188 262.1875 355 264 C 356.855469 264.777344 358.191406 266.109375 359 268 C 357.113281 270.953125 354.445312 272.953125 351 274 C 346.199219 274.371094 341.53125 275.371094 337 277 C 337.417969 278.171875 338.085938 279.171875 339 280 C 335.117188 281.484375 331.453125 281.152344 328 279 C 324.441406 282.035156 325.441406 283.703125 331 284 C 329.238281 285.414062 327.90625 287.085938 327 289 Z M 327 289 "/>
<use xlink:href="#surface5" mask="url(#mask0)"/>
<path style=" stroke:none;fill-rule:evenodd;fill:rgb(99.215686%,83.137256%,14.901961%);fill-opacity:1;" d="M 253 377 C 258.375 376.671875 263.707031 377.007812 269 378 C 272.074219 380.21875 273.40625 383.21875 273 387 C 272.34375 410.023438 273.011719 432.691406 275 455 C 275 456.335938 275 457.664062 275 459 C 275 460.335938 274.335938 461 273 461 C 270.339844 488.46875 270.339844 516.136719 273 544 C 266.367188 544.996094 259.699219 545.328125 253 545 C 253 489 253 433 253 377 Z M 253 377 "/>
<path style=" stroke:none;fill-rule:evenodd;fill:rgb(85.882354%,27.450982%,25.490198%);fill-opacity:1;" d="M 233 403 C 228.519531 417.738281 224.519531 432.402344 221 447 C 220.777344 437.109375 222.113281 427.441406 225 418 C 226.480469 412.234375 229.148438 407.234375 233 403 Z M 233 403 "/>
<path style=" stroke:none;fill-rule:evenodd;fill:rgb(93.333334%,81.568629%,27.058825%);fill-opacity:1;" d="M 313 385 C 314.445312 385.835938 315.445312 387.167969 316 389 C 317.335938 404.335938 317.335938 419.664062 316 435 C 314.605469 439.167969 312.273438 442.503906 309 445 C 312.570312 425.25 313.902344 405.25 313 385 Z M 313 385 "/>
<path style=" stroke:none;fill-rule:evenodd;fill:rgb(95.294118%,83.529413%,24.705882%);fill-opacity:1;" d="M 737 463 C 737.128906 463.875 736.796875 464.542969 736 465 C 734.578125 462.054688 732.246094 460.71875 729 461 C 728.589844 469.796875 729.253906 478.464844 731 487 C 720.019531 466.347656 726.019531 452.679688 749 446 C 773.722656 443.054688 786.390625 454.054688 787 479 C 783.664062 479 780.335938 479 777 479 C 775.992188 458.324219 765.324219 449.992188 745 454 C 740.496094 455.496094 737.832031 458.496094 737 463 Z M 737 463 "/>
<path style=" stroke:none;fill-rule:evenodd;fill:rgb(96.470588%,83.137256%,20.784314%);fill-opacity:1;" d="M 627 461 C 624.179688 458.183594 620.847656 456.183594 617 455 C 613.925781 454.90625 611.925781 456.238281 611 459 C 603.980469 452.335938 595.980469 451.335938 587 456 C 584.851562 457.476562 583.519531 459.476562 583 462 C 587.902344 474.40625 583.902344 479.738281 571 478 C 564.425781 472.464844 564.089844 466.132812 570 459 C 585.414062 445.910156 602.414062 443.578125 621 452 C 624.28125 454.257812 626.28125 457.257812 627 461 Z M 627 461 "/>
<path style=" stroke:none;fill-rule:evenodd;fill:rgb(98.039216%,82.745099%,14.901961%);fill-opacity:1;" d="M 669 453 C 665.039062 476.910156 663.707031 501.574219 665 527 C 661.648438 528.367188 660.3125 531.035156 661 535 C 656.871094 535.035156 652.871094 535.699219 649 537 C 649 536.335938 649 535.664062 649 535 C 648.4375 506.261719 649.101562 477.59375 651 449 C 658.023438 447.890625 664.023438 449.222656 669 453 Z M 669 453 "/>
<path style=" stroke:none;fill-rule:evenodd;fill:rgb(98.039216%,82.745099%,16.470589%);fill-opacity:1;" d="M 425 453 C 425 481.664062 425 510.335938 425 539 C 424.828125 540.992188 425.496094 542.65625 427 544 C 424.414062 544.980469 421.746094 545.3125 419 545 C 413.816406 543.492188 410.152344 540.15625 408 535 C 405.742188 531.308594 404.742188 527.308594 405 523 C 407.660156 498.863281 407.660156 474.53125 405 450 C 413 448.664062 421 448.664062 429 450 C 427.167969 450.554688 425.835938 451.554688 425 453 Z M 425 453 "/>
<path style=" stroke:none;fill-rule:evenodd;fill:rgb(98.039216%,83.137256%,16.862746%);fill-opacity:1;" d="M 313 385 C 313.902344 405.25 312.570312 425.25 309 445 C 307.539062 447.425781 305.539062 449.425781 303 451 C 309.609375 453.945312 314.609375 458.609375 318 465 C 319.335938 487 319.335938 509 318 531 C 316.605469 535.167969 314.273438 538.503906 311 541 C 307.710938 540.570312 304.710938 541.238281 302 543 C 301.632812 537.269531 300.632812 531.9375 299 527 C 298.355469 511.578125 299.019531 495.910156 301 480 C 302.875 458.824219 294.210938 451.824219 275 459 C 275 457.664062 275 456.335938 275 455 C 280.582031 452.5625 286.246094 449.894531 292 447 C 296.648438 431.160156 297.316406 415.160156 294 399 C 290.078125 388.886719 283.078125 384.886719 273 387 C 273.40625 383.21875 272.074219 380.21875 269 378 C 263.707031 377.007812 258.375 376.671875 253 377 C 253 375 253 373 253 371 C 252.871094 370.125 253.203125 369.457031 254 369 C 255.210938 372.960938 257.210938 373.628906 260 371 C 273.796875 376.027344 288.132812 379.027344 303 380 C 307.304688 380.199219 310.636719 381.867188 313 385 Z M 313 385 "/>
<path style=" stroke:none;fill-rule:evenodd;fill:rgb(99.215686%,83.529413%,12.156863%);fill-opacity:1;" d="M 691 535 C 691.65625 507.980469 690.992188 481.3125 689 455 C 689 454.335938 689 453.664062 689 453 C 692.097656 450.410156 696.097656 449.078125 701 449 C 705 449.335938 709 449.664062 713 450 C 710.367188 465.199219 709.035156 480.863281 709 497 C 709.015625 512.816406 709.683594 528.484375 711 544 C 707 545.335938 703 545.335938 699 544 C 699.914062 543.171875 700.582031 542.171875 701 541 C 696.691406 539.996094 693.355469 537.996094 691 535 Z M 691 535 "/>
<path style=" stroke:none;fill-rule:evenodd;fill:rgb(95.686275%,81.960785%,21.176471%);fill-opacity:1;" d="M 389 463 C 384.269531 458.28125 378.9375 454.28125 373 451 C 373.4375 460.355469 372.769531 469.6875 371 479 C 377.136719 458.175781 369.804688 449.839844 349 454 C 342.746094 458.09375 341.414062 463.425781 345 470 C 343.683594 478.164062 339.015625 480.832031 331 478 C 325.5 470.273438 326.167969 462.9375 333 456 C 348.195312 445.703125 364.195312 444.371094 381 452 C 384.929688 454.902344 387.59375 458.566406 389 463 Z M 389 463 "/>
<path style=" stroke:none;fill-rule:evenodd;fill:rgb(99.215686%,83.529413%,12.941177%);fill-opacity:1;" d="M 471 453 C 469.007812 483.316406 468.339844 513.980469 469 545 C 460 545.023438 454 540.6875 451 532 C 453.628906 505.386719 453.628906 479.054688 451 453 C 449 453 447 453 445 453 C 445 451 445 449 445 447 C 455 447 465 447 475 447 C 475.429688 450.359375 474.097656 452.359375 471 453 Z M 471 453 "/>
<path style=" stroke:none;fill-rule:evenodd;fill:rgb(93.725491%,80.392158%,26.666668%);fill-opacity:1;" d="M 669 453 C 664.023438 449.222656 658.023438 447.890625 651 449 C 649.101562 477.59375 648.4375 506.261719 649 535 C 647.554688 534.164062 646.554688 532.832031 646 531 C 645.664062 504.972656 644.664062 478.972656 643 453 C 641 452.335938 639.664062 451 639 449 C 649.585938 447.011719 660.25 446.34375 671 447 C 671.472656 449.582031 670.808594 451.582031 669 453 Z M 669 453 "/>
<path style=" stroke:none;fill-rule:evenodd;fill:rgb(99.215686%,83.137256%,12.156863%);fill-opacity:1;" d="M 389 463 C 389 463.664062 389 464.335938 389 465 C 389.335938 491.007812 389 517.007812 388 543 C 385.289062 544.761719 382.289062 545.429688 379 545 C 379.597656 540.792969 378.933594 536.792969 377 533 C 375.828125 533.417969 374.828125 534.085938 374 535 C 373.65625 518.644531 372.65625 502.644531 371 487 C 371 486.335938 371 485.664062 371 485 C 369.78125 483.21875 369.113281 481.21875 369 479 C 369.664062 479 370.335938 479 371 479 C 372.769531 469.6875 373.4375 460.355469 373 451 C 378.9375 454.28125 384.269531 458.28125 389 463 Z M 389 463 "/>
<use xlink:href="#surface8" mask="url(#mask1)"/>
<path style=" stroke:none;fill-rule:evenodd;fill:rgb(99.215686%,83.137256%,12.941177%);fill-opacity:1;" d="M 627 461 C 628.84375 486.273438 629.507812 511.605469 629 537 C 622.628906 537.445312 620.628906 540.445312 623 546 C 621.8125 546.929688 620.476562 547.261719 619 547 C 617 546.335938 615.664062 545 615 543 C 613.816406 523.378906 612.484375 504.046875 611 485 C 613.324219 476.039062 613.324219 467.375 611 459 C 611.925781 456.238281 613.925781 454.90625 617 455 C 620.847656 456.183594 624.179688 458.183594 627 461 Z M 627 461 "/>
<path style=" stroke:none;fill-rule:evenodd;fill:rgb(94.901961%,82.352942%,25.098041%);fill-opacity:1;" d="M 369 479 C 369.113281 481.21875 369.78125 483.21875 371 485 C 359.109375 489.519531 351.109375 497.519531 347 509 C 347 505.664062 347 502.335938 347 499 C 343.601562 498.679688 340.269531 499.011719 337 500 C 334.589844 502.753906 331.925781 505.085938 329 507 C 330.40625 502.566406 333.070312 498.902344 337 496 C 348.039062 490.816406 358.703125 485.148438 369 479 Z M 369 479 "/>
<path style=" stroke:none;fill-rule:evenodd;fill:rgb(87.843138%,25.490198%,23.529412%);fill-opacity:1;" d="M 221 447 C 216.957031 482.867188 219.621094 518.203125 229 553 C 227.601562 547.613281 224.269531 543.613281 219 541 C 220.175781 537.453125 220.839844 533.789062 221 530 C 217.929688 517.382812 216.597656 504.382812 217 491 C 216.714844 475.886719 218.046875 461.21875 221 447 Z M 221 447 "/>
<use xlink:href="#surface11" mask="url(#mask2)"/>
<path style=" stroke:none;fill-rule:evenodd;fill:rgb(98.039216%,83.137256%,16.862746%);fill-opacity:1;" d="M 737 463 C 747.488281 475.976562 760.820312 485.640625 777 492 C 794.949219 507.710938 796.949219 525.046875 783 544 C 769.871094 551.785156 756.539062 552.785156 743 547 C 738.785156 545.0625 734.117188 544.394531 729 545 C 728.351562 536.890625 729.019531 528.890625 731 521 C 732.003906 525.308594 734.003906 528.644531 737 531 C 744.816406 542.828125 755.484375 546.496094 769 542 C 777.167969 531.59375 776.503906 521.59375 767 512 C 753.820312 505.101562 741.820312 496.769531 731 487 C 729.253906 478.464844 728.589844 469.796875 729 461 C 732.246094 460.71875 734.578125 462.054688 736 465 C 736.796875 464.542969 737.128906 463.875 737 463 Z M 737 463 "/>
<path style=" stroke:none;fill-rule:evenodd;fill:rgb(98.823529%,83.529413%,11.764706%);fill-opacity:1;" d="M 347 509 C 345.023438 519.949219 344.355469 531.285156 345 543 C 342.335938 543 339.664062 543 337 543 C 336.015625 538.386719 335.347656 533.722656 335 529 C 333 529 331 529 329 529 C 329 521.664062 329 514.335938 329 507 C 331.925781 505.085938 334.589844 502.753906 337 500 C 340.269531 499.011719 343.601562 498.679688 347 499 C 347 502.335938 347 505.664062 347 509 Z M 347 509 "/>
<path style=" stroke:none;fill-rule:evenodd;fill:rgb(96.078432%,81.960785%,20.392157%);fill-opacity:1;" d="M 611 459 C 613.324219 467.375 613.324219 476.039062 611 485 C 612.484375 504.046875 613.816406 523.378906 615 543 C 611.800781 540.976562 609.132812 541.976562 607 546 C 582.15625 555.234375 568.15625 546.566406 565 520 C 565.28125 510.109375 569.28125 502.109375 577 496 C 588.226562 489.890625 599.226562 483.558594 610 477 C 610.996094 471.035156 611.328125 465.035156 611 459 Z M 611 485 C 611.332031 501.015625 611 517.015625 610 533 C 605.546875 541.722656 598.546875 544.722656 589 542 C 586.195312 528.328125 586.527344 514.660156 590 501 C 595.644531 493.996094 602.644531 488.664062 611 485 Z M 611 485 "/>
<path style=" stroke:none;fill-rule:evenodd;fill:rgb(92.941177%,81.960785%,29.019609%);fill-opacity:1;" d="M 737 531 C 734.003906 528.644531 732.003906 525.308594 731 521 C 729.019531 528.890625 728.351562 536.890625 729 545 C 734.117188 544.394531 738.785156 545.0625 743 547 C 737.589844 547.148438 732.253906 547.816406 727 549 C 727.601562 539.800781 726.933594 530.800781 725 522 C 727.808594 519.460938 731.140625 518.460938 735 519 C 735.664062 523 736.335938 527 737 531 Z M 737 531 "/>
<path style=" stroke:none;fill-rule:evenodd;fill:rgb(92.941177%,80.392158%,22.745098%);fill-opacity:1;" d="M 627 461 C 628.535156 462.527344 629.535156 464.527344 630 467 C 630.664062 491.664062 631.335938 516.335938 632 541 C 638.394531 547.054688 636.730469 549.71875 627 549 C 623.910156 548.976562 621.242188 548.3125 619 547 C 620.476562 547.261719 621.8125 546.929688 623 546 C 620.628906 540.445312 622.628906 537.445312 629 537 C 629.507812 511.605469 628.84375 486.273438 627 461 Z M 627 461 "/>
<path style=" stroke:none;fill-rule:evenodd;fill:rgb(97.647059%,82.352942%,17.254902%);fill-opacity:1;" d="M 551 459 C 553.578125 460.117188 555.246094 462.117188 556 465 C 555.695312 491.742188 557.363281 517.742188 561 543 C 557.207031 545.609375 552.539062 546.941406 547 547 C 541.460938 546.941406 536.792969 545.609375 533 543 C 534.335938 543 535.664062 543 537 543 C 539.648438 513.921875 539.648438 484.589844 537 455 C 539.445312 452.773438 542.113281 452.4375 545 454 C 546.746094 456.089844 548.746094 457.757812 551 459 Z M 551 459 "/>
<path style=" stroke:none;fill-rule:evenodd;fill:rgb(92.54902%,80.784315%,29.019609%);fill-opacity:1;" d="M 253 371 C 253 373 253 375 253 377 C 253 433 253 489 253 545 C 259.699219 545.328125 266.367188 544.996094 273 544 C 270.339844 516.136719 270.339844 488.46875 273 461 C 272.664062 487.007812 273 513.007812 274 539 C 282 547 290 547 298 539 C 298.988281 535.054688 299.324219 531.054688 299 527 C 300.632812 531.9375 301.632812 537.269531 302 543 C 304.710938 541.238281 307.710938 540.570312 311 541 C 308.050781 544.820312 304.050781 547.152344 299 548 C 283.015625 549 267.015625 549.332031 251 549 C 250.339844 489.324219 251.003906 429.988281 253 371 Z M 253 371 "/>
<path style=" stroke:none;fill-rule:evenodd;fill:rgb(94.117647%,81.568629%,23.529412%);fill-opacity:1;" d="M 389 465 C 390.660156 489.984375 391.660156 515.320312 392 541 C 395.515625 542.9375 396.515625 545.273438 395 548 C 385.765625 550.59375 378.101562 548.261719 372 541 C 354.152344 555.828125 339.484375 553.164062 328 533 C 324.136719 523.953125 324.46875 515.285156 329 507 C 329 514.335938 329 521.664062 329 529 C 331 529 333 529 335 529 C 335.347656 533.722656 336.015625 538.386719 337 543 C 339.664062 543 342.335938 543 345 543 C 344.355469 531.285156 345.023438 519.949219 347 509 C 346.667969 519.023438 347.003906 529.023438 348 539 C 357.316406 545.128906 364.648438 543.128906 370 533 C 371 517.683594 371.332031 502.347656 371 487 C 372.65625 502.644531 373.65625 518.644531 374 535 C 374.828125 534.085938 375.828125 533.417969 377 533 C 378.933594 536.792969 379.597656 540.792969 379 545 C 382.289062 545.429688 385.289062 544.761719 388 543 C 389 517.007812 389.335938 491.007812 389 465 Z M 389 465 "/>
<path style=" stroke:none;fill-rule:evenodd;fill:rgb(94.901961%,81.960785%,26.666668%);fill-opacity:1;" d="M 649 537 C 652.871094 535.699219 656.871094 535.035156 661 535 C 660.3125 531.035156 661.648438 528.367188 665 527 C 664.300781 543.136719 670.96875 547.136719 685 539 C 687 537.664062 689 536.335938 691 535 C 693.355469 537.996094 696.691406 539.996094 701 541 C 700.582031 542.171875 699.914062 543.171875 699 544 C 703 545.335938 707 545.335938 711 544 C 709.683594 528.484375 709.015625 512.816406 709 497 C 709.035156 480.863281 710.367188 465.199219 713 450 C 709 449.664062 705 449.335938 701 449 C 696.097656 449.078125 692.097656 450.410156 689 453 C 685.902344 452.359375 684.570312 450.359375 685 447 C 695 447 705 447 715 447 C 710.863281 478.070312 709.863281 509.40625 712 541 C 714.34375 543.785156 717.34375 545.453125 721 546 C 709.824219 551.023438 699.824219 549.355469 691 541 C 675.554688 552.648438 661.554688 551.316406 649 537 Z M 649 537 "/>
<path style=" stroke:none;fill-rule:evenodd;fill:rgb(93.333334%,81.176472%,27.058825%);fill-opacity:1;" d="M 451 453 C 453.628906 479.054688 453.628906 505.386719 451 532 C 454 540.6875 460 545.023438 469 545 C 468.339844 513.980469 469.007812 483.316406 471 453 C 470.664062 482.339844 471 511.675781 472 541 C 474.34375 543.785156 477.34375 545.453125 481 546 C 474.597656 548.964844 467.929688 549.632812 461 548 C 456.664062 546.335938 453.664062 543.335938 452 539 C 442.214844 549.421875 431.214844 551.421875 419 545 C 421.746094 545.3125 424.414062 544.980469 427 544 C 425.496094 542.65625 424.828125 540.992188 425 539 C 437.53125 544.949219 445.867188 540.949219 450 527 C 450.894531 501.925781 451.226562 477.257812 451 453 Z M 451 453 "/>
<path style=" stroke:none;fill-rule:evenodd;fill:rgb(86.274511%,77.254903%,34.901962%);fill-opacity:1;" d="M 489 543 C 488.777344 544.234375 488.113281 545.234375 487 546 C 491.664062 546.335938 496.335938 546.664062 501 547 C 506.539062 546.941406 511.207031 545.609375 515 543 C 516.808594 544.417969 517.472656 546.417969 517 549 C 506.335938 549 495.664062 549 485 549 C 484.570312 545.640625 485.902344 543.640625 489 543 Z M 489 543 "/>
<path style=" stroke:none;fill-rule:evenodd;fill:rgb(86.666667%,78.039217%,34.509805%);fill-opacity:1;" d="M 533 543 C 536.792969 545.609375 541.460938 546.941406 547 547 C 552.539062 546.941406 557.207031 545.609375 561 543 C 562.808594 544.417969 563.472656 546.417969 563 549 C 552.335938 549 541.664062 549 531 549 C 530.527344 546.417969 531.191406 544.417969 533 543 Z M 533 543 "/>
<path style=" stroke:none;fill-rule:evenodd;fill:rgb(91.764706%,80.000001%,29.019609%);fill-opacity:1;" d="M 543 577 C 552.335938 577 561.664062 577 571 577 C 571 579 571 581 571 583 C 567 583 563 583 559 583 C 559 593.664062 559 604.335938 559 615 C 556.648438 615.4375 554.648438 614.773438 553 613 C 554.894531 603.128906 555.5625 593.128906 555 583 C 551 583 547 583 543 583 C 543 581 543 579 543 577 Z M 543 577 "/>
<path style=" stroke:none;fill-rule:evenodd;fill:rgb(90.980393%,78.431374%,29.411766%);fill-opacity:1;" d="M 621 577 C 637.921875 577.59375 644.921875 586.261719 642 603 C 635.96875 614.742188 626.96875 617.742188 615 612 C 603.246094 597.789062 605.246094 586.121094 621 577 Z M 619 583 C 633.648438 581.984375 639.316406 588.652344 636 603 C 620.835938 613.679688 613.503906 609.679688 614 591 C 615.324219 588.03125 616.992188 585.367188 619 583 Z M 619 583 "/>
<path style=" stroke:none;fill-rule:evenodd;fill:rgb(92.54902%,78.039217%,27.450982%);fill-opacity:1;" d="M 271 577 C 283.074219 574.203125 291.742188 578.203125 297 589 C 293.632812 599.371094 286.300781 603.707031 275 602 C 276.523438 606.359375 275.855469 610.691406 273 615 C 271.007812 602.402344 270.339844 589.734375 271 577 Z M 275 585 C 278.574219 582.757812 282.574219 582.421875 287 584 C 291.054688 586.792969 291.71875 590.125 289 594 C 285.054688 594.988281 281.054688 595.324219 277 595 C 277.566406 591.171875 276.902344 587.839844 275 585 Z M 275 585 "/>
<path style=" stroke:none;fill-rule:evenodd;fill:rgb(90.588236%,79.215688%,29.019609%);fill-opacity:1;" d="M 407 577 C 433.046875 575.957031 441.046875 586.957031 431 610 C 423.492188 613.976562 415.492188 615.644531 407 615 C 407 602.335938 407 589.664062 407 577 Z M 411 583 C 428.097656 583.042969 433.433594 590.707031 427 606 C 421.972656 608.503906 416.640625 609.503906 411 609 C 411 600.335938 411 591.664062 411 583 Z M 411 583 "/>
<path style=" stroke:none;fill-rule:evenodd;fill:rgb(89.803922%,79.607844%,30.588236%);fill-opacity:1;" d="M 367 577 C 384.90625 577.925781 391.90625 587.261719 388 605 C 377.335938 618.335938 366.664062 618.335938 356 605 C 352.535156 592.628906 356.203125 583.292969 367 577 Z M 367 583 C 378.925781 581.929688 384.589844 587.261719 384 599 C 376.105469 612.304688 368.105469 612.304688 360 599 C 358.558594 591.890625 360.890625 586.558594 367 583 Z M 367 583 "/>
<path style=" stroke:none;fill-rule:evenodd;fill:rgb(81.960785%,73.725492%,43.921569%);fill-opacity:1;" d="M 457 603 C 455.191406 604.417969 454.527344 606.417969 455 609 C 452.371094 598.640625 452.371094 587.972656 455 577 C 456.984375 585.566406 457.652344 594.230469 457 603 Z M 457 603 "/>
<use xlink:href="#surface14" mask="url(#mask3)"/>
<path style=" stroke:none;fill-rule:evenodd;fill:rgb(91.764706%,79.215688%,28.235295%);fill-opacity:1;" d="M 313 577 C 325.652344 573.992188 334.320312 578.324219 339 590 C 338.21875 594.917969 335.550781 598.253906 331 600 C 334.417969 603.832031 337.085938 608.164062 339 613 C 337 615.664062 335 615.664062 333 613 C 331.542969 606.613281 327.878906 602.613281 322 601 C 320.335938 601.335938 318.664062 601.664062 317 602 C 318.847656 606.082031 319.511719 610.414062 319 615 C 317 615 315 615 313 615 C 313 602.335938 313 589.664062 313 577 Z M 317 585 C 321.257812 582.742188 325.921875 582.40625 331 584 C 333.664062 587.335938 333.664062 590.664062 331 594 C 327.054688 594.988281 323.054688 595.324219 319 595 C 319.566406 591.171875 318.902344 587.839844 317 585 Z M 317 585 "/>
<use xlink:href="#surface17" mask="url(#mask4)"/>
<path style=" stroke:none;fill-rule:evenodd;fill:rgb(90.588236%,80.392158%,29.411766%);fill-opacity:1;" d="M 511 577 C 518.273438 576.972656 524.273438 579.640625 529 585 C 528.382812 586.617188 527.382812 587.949219 526 589 C 514.292969 579.472656 505.957031 581.804688 501 596 C 506.222656 610.136719 514.554688 612.472656 526 603 C 527.382812 604.050781 528.382812 605.382812 529 607 C 519.347656 617.53125 509.679688 617.53125 500 607 C 493.675781 593.027344 497.34375 583.027344 511 577 Z M 511 577 "/>
<use xlink:href="#surface20" mask="url(#mask5)"/>
<path style=" stroke:none;fill-rule:evenodd;fill:rgb(94.509804%,21.568628%,21.176471%);fill-opacity:1;" d="M 229 553 C 263.417969 643.597656 328.753906 696.261719 425 711 C 425 711.664062 425 712.335938 425 713 C 403.492188 710.496094 382.492188 705.832031 362 699 C 361 700 360 701 359 702 C 362.351562 704.355469 365.019531 707.355469 367 711 C 376.675781 712.871094 385.34375 716.203125 393 721 C 371.394531 717.578125 351.394531 710.246094 333 699 C 280.066406 671.835938 242.734375 630.503906 221 575 C 222.914062 575.90625 224.585938 577.238281 226 579 C 226.027344 574.804688 225.695312 571.136719 225 568 C 228.554688 563.730469 229.890625 558.730469 229 553 Z M 229 553 "/>
<path style=" stroke:none;fill-rule:evenodd;fill:rgb(83.529413%,21.568628%,19.607843%);fill-opacity:1;" d="M 611 665 C 611.28125 661.753906 609.945312 659.421875 607 658 C 614.386719 656.285156 619.71875 651.953125 623 645 C 618.457031 643.273438 613.789062 643.273438 609 645 C 610.578125 642.410156 612.578125 640.078125 615 638 C 622.335938 636.664062 629.664062 636.664062 637 638 C 629.328125 648.007812 620.660156 657.007812 611 665 Z M 611 665 "/>
<path style=" stroke:none;fill-rule:evenodd;fill:rgb(96.862745%,20.392157%,20.392157%);fill-opacity:1;" d="M 611 665 C 597.429688 678.125 582.097656 688.792969 565 697 C 540.160156 705.371094 515.496094 714.035156 491 723 C 476.789062 726.023438 462.125 727.359375 447 727 C 428.398438 727.800781 410.398438 725.800781 393 721 C 385.34375 716.203125 376.675781 712.871094 367 711 C 365.019531 707.355469 362.351562 704.355469 359 702 C 360 701 361 700 362 699 C 382.492188 705.832031 403.492188 710.496094 425 713 C 441.015625 713.332031 457.015625 713 473 712 C 478.070312 711.628906 482.738281 710.628906 487 709 C 533.503906 698.75 574.171875 677.414062 609 645 C 613.789062 643.273438 618.457031 643.273438 623 645 C 619.71875 651.953125 614.386719 656.285156 607 658 C 609.945312 659.421875 611.28125 661.753906 611 665 Z M 611 665 "/>
<path style=" stroke:none;fill-rule:evenodd;fill:rgb(98.823529%,19.215687%,18.82353%);fill-opacity:1;" d="M 333 699 C 328.136719 695.019531 323.472656 690.6875 319 686 C 324.792969 682.457031 330.792969 682.457031 337 686 C 339.453125 689.269531 342.117188 692.269531 345 695 C 349.148438 692.476562 353.148438 692.808594 357 696 C 349.691406 701.570312 341.691406 702.570312 333 699 Z M 333 699 "/>
<use xlink:href="#surface23" mask="url(#mask6)"/>
<path style=" stroke:none;fill-rule:evenodd;fill:rgb(86.666667%,23.529412%,23.137255%);fill-opacity:1;" d="M 565 697 C 542.304688 710.789062 517.636719 719.457031 491 723 C 515.496094 714.035156 540.160156 705.371094 565 697 Z M 565 697 "/>
</g>
</svg>
